<svg xmlns="http://www.w3.org/2000/svg" width="920" height="360" viewBox="0 0 920 360">
<rect width="100%" height="100%" fill="white"/>
<text x="460.0" y="28.0" font-family="Arial, Helvetica, sans-serif" font-size="14" text-anchor="middle" font-weight="bold" fill="#111">Held-out Nearest alpha response diagnostic</text>
<text x="460.0" y="48.0" font-family="Arial, Helvetica, sans-serif" font-size="9" text-anchor="middle" font-weight="normal" fill="#555">Nearest is plotted only after Bicubic/Bilinear validation selects alpha</text>
<text x="252.5" y="62.0" font-family="Arial, Helvetica, sans-serif" font-size="12" text-anchor="middle" font-weight="bold" fill="#111">ADI-LoRA</text>
<text x="252.5" y="78.0" font-family="Arial, Helvetica, sans-serif" font-size="9" text-anchor="middle" font-weight="normal" fill="#555">three seeds; gray lines show seeds</text>
<line x1="75.0" y1="282.0" x2="430.0" y2="282.0" stroke="#222" stroke-width="0.90" opacity="1.00"/>
<line x1="75.0" y1="92.0" x2="75.0" y2="282.0" stroke="#222" stroke-width="0.90" opacity="1.00"/>
<line x1="75.0" y1="273.4" x2="430.0" y2="273.4" stroke="#D8D8D8" stroke-width="0.55" opacity="0.90"/>
<text x="67.0" y="277.4" font-family="Arial, Helvetica, sans-serif" font-size="9" text-anchor="end" font-weight="normal" fill="#111">45</text>
<line x1="75.0" y1="230.2" x2="430.0" y2="230.2" stroke="#D8D8D8" stroke-width="0.55" opacity="0.90"/>
<text x="67.0" y="234.2" font-family="Arial, Helvetica, sans-serif" font-size="9" text-anchor="end" font-weight="normal" fill="#111">50</text>
<line x1="75.0" y1="187.0" x2="430.0" y2="187.0" stroke="#D8D8D8" stroke-width="0.55" opacity="0.90"/>
<text x="67.0" y="191.0" font-family="Arial, Helvetica, sans-serif" font-size="9" text-anchor="end" font-weight="normal" fill="#111">55</text>
<line x1="75.0" y1="143.8" x2="430.0" y2="143.8" stroke="#D8D8D8" stroke-width="0.55" opacity="0.90"/>
<text x="67.0" y="147.8" font-family="Arial, Helvetica, sans-serif" font-size="9" text-anchor="end" font-weight="normal" fill="#111">60</text>
<line x1="75.0" y1="100.6" x2="430.0" y2="100.6" stroke="#D8D8D8" stroke-width="0.55" opacity="0.90"/>
<text x="67.0" y="104.6" font-family="Arial, Helvetica, sans-serif" font-size="9" text-anchor="end" font-weight="normal" fill="#111">65</text>
<text x="75.0" y="302.0" font-family="Arial, Helvetica, sans-serif" font-size="9" text-anchor="middle" font-weight="normal" fill="#111">0.2</text>
<text x="163.8" y="302.0" font-family="Arial, Helvetica, sans-serif" font-size="9" text-anchor="middle" font-weight="normal" fill="#111">0.4</text>
<text x="252.5" y="302.0" font-family="Arial, Helvetica, sans-serif" font-size="9" text-anchor="middle" font-weight="normal" fill="#111">0.6</text>
<text x="341.3" y="302.0" font-family="Arial, Helvetica, sans-serif" font-size="9" text-anchor="middle" font-weight="normal" fill="#111">0.8</text>
<text x="430.0" y="302.0" font-family="Arial, Helvetica, sans-serif" font-size="9" text-anchor="middle" font-weight="normal" fill="#111">1.0</text>
<text x="30.0" y="187.0" font-family="Arial, Helvetica, sans-serif" font-size="10" text-anchor="middle" font-weight="normal" fill="#111" transform="rotate(-90.0 30.0 187.0)">Nearest accuracy (%)</text>
<line x1="430.0" y1="92.0" x2="430.0" y2="282.0" stroke="#555" stroke-width="1.10" opacity="0.90" stroke-dasharray="5,4"/>
<text x="424.0" y="106.0" font-family="Arial, Helvetica, sans-serif" font-size="8" text-anchor="end" font-weight="normal" fill="#555" transform="rotate(-90.0 424.0 106.0)">alpha=1.0</text>
<line x1="75.0" y1="209.6" x2="163.8" y2="130.6" stroke="#B8B8B8" stroke-width="1.00" opacity="0.75"/>
<line x1="163.8" y1="130.6" x2="252.5" y2="98.9" stroke="#B8B8B8" stroke-width="1.00" opacity="0.75"/>
<line x1="252.5" y1="98.9" x2="341.3" y2="102.0" stroke="#B8B8B8" stroke-width="1.00" opacity="0.75"/>
<line x1="341.3" y1="102.0" x2="430.0" y2="137.9" stroke="#B8B8B8" stroke-width="1.00" opacity="0.75"/>
<circle cx="75.0" cy="209.6" r="2.6" fill="#F4F4F4" stroke="#8A8A8A" stroke-width="0.65" opacity="1.00"/>
<circle cx="163.8" cy="130.6" r="2.6" fill="#F4F4F4" stroke="#8A8A8A" stroke-width="0.65" opacity="1.00"/>
<circle cx="252.5" cy="98.9" r="2.6" fill="#F4F4F4" stroke="#8A8A8A" stroke-width="0.65" opacity="1.00"/>
<circle cx="341.3" cy="102.0" r="2.6" fill="#F4F4F4" stroke="#8A8A8A" stroke-width="0.65" opacity="1.00"/>
<circle cx="430.0" cy="137.9" r="2.6" fill="#F4F4F4" stroke="#8A8A8A" stroke-width="0.65" opacity="1.00"/>
<line x1="75.0" y1="212.7" x2="163.8" y2="147.8" stroke="#B8B8B8" stroke-width="1.00" opacity="0.75"/>
<line x1="163.8" y1="147.8" x2="252.5" y2="129.0" stroke="#B8B8B8" stroke-width="1.00" opacity="0.75"/>
<line x1="252.5" y1="129.0" x2="341.3" y2="141.5" stroke="#B8B8B8" stroke-width="1.00" opacity="0.75"/>
<line x1="341.3" y1="141.5" x2="430.0" y2="173.0" stroke="#B8B8B8" stroke-width="1.00" opacity="0.75"/>
<circle cx="75.0" cy="212.7" r="2.6" fill="#F4F4F4" stroke="#8A8A8A" stroke-width="0.65" opacity="1.00"/>
<circle cx="163.8" cy="147.8" r="2.6" fill="#F4F4F4" stroke="#8A8A8A" stroke-width="0.65" opacity="1.00"/>
<circle cx="252.5" cy="129.0" r="2.6" fill="#F4F4F4" stroke="#8A8A8A" stroke-width="0.65" opacity="1.00"/>
<circle cx="341.3" cy="141.5" r="2.6" fill="#F4F4F4" stroke="#8A8A8A" stroke-width="0.65" opacity="1.00"/>
<circle cx="430.0" cy="173.0" r="2.6" fill="#F4F4F4" stroke="#8A8A8A" stroke-width="0.65" opacity="1.00"/>
<line x1="75.0" y1="205.8" x2="163.8" y2="142.3" stroke="#B8B8B8" stroke-width="1.00" opacity="0.75"/>
<line x1="163.8" y1="142.3" x2="252.5" y2="122.7" stroke="#B8B8B8" stroke-width="1.00" opacity="0.75"/>
<line x1="252.5" y1="122.7" x2="341.3" y2="132.2" stroke="#B8B8B8" stroke-width="1.00" opacity="0.75"/>
<line x1="341.3" y1="132.2" x2="430.0" y2="170.2" stroke="#B8B8B8" stroke-width="1.00" opacity="0.75"/>
<circle cx="75.0" cy="205.8" r="2.6" fill="#F4F4F4" stroke="#8A8A8A" stroke-width="0.65" opacity="1.00"/>
<circle cx="163.8" cy="142.3" r="2.6" fill="#F4F4F4" stroke="#8A8A8A" stroke-width="0.65" opacity="1.00"/>
<circle cx="252.5" cy="122.7" r="2.6" fill="#F4F4F4" stroke="#8A8A8A" stroke-width="0.65" opacity="1.00"/>
<circle cx="341.3" cy="132.2" r="2.6" fill="#F4F4F4" stroke="#8A8A8A" stroke-width="0.65" opacity="1.00"/>
<circle cx="430.0" cy="170.2" r="2.6" fill="#F4F4F4" stroke="#8A8A8A" stroke-width="0.65" opacity="1.00"/>
<line x1="75.0" y1="209.4" x2="163.8" y2="140.2" stroke="#0072B2" stroke-width="2.40" opacity="1.00"/>
<line x1="163.8" y1="140.2" x2="252.5" y2="116.9" stroke="#0072B2" stroke-width="2.40" opacity="1.00"/>
<line x1="252.5" y1="116.9" x2="341.3" y2="125.2" stroke="#0072B2" stroke-width="2.40" opacity="1.00"/>
<line x1="341.3" y1="125.2" x2="430.0" y2="160.4" stroke="#0072B2" stroke-width="2.40" opacity="1.00"/>
<circle cx="75.0" cy="209.4" r="4.3" fill="#0072B2" stroke="#222" stroke-width="0.70" opacity="1.00"/>
<circle cx="163.8" cy="140.2" r="4.3" fill="#0072B2" stroke="#222" stroke-width="0.70" opacity="1.00"/>
<circle cx="252.5" cy="116.9" r="4.3" fill="#0072B2" stroke="#222" stroke-width="0.70" opacity="1.00"/>
<circle cx="341.3" cy="125.2" r="4.3" fill="#0072B2" stroke="#222" stroke-width="0.70" opacity="1.00"/>
<circle cx="430.0" cy="160.4" r="4.3" fill="#0072B2" stroke="#222" stroke-width="0.70" opacity="1.00"/>
<line x1="341.3" y1="92.0" x2="341.3" y2="282.0" stroke="#0072B2" stroke-width="1.10" opacity="0.75" stroke-dasharray="3,3"/>
<text x="346.3" y="108.0" font-family="Arial, Helvetica, sans-serif" font-size="8" text-anchor="start" font-weight="normal" fill="#0072B2" transform="rotate(-90.0 346.3 108.0)">alpha*</text>
<text x="252.5" y="326.0" font-family="Arial, Helvetica, sans-serif" font-size="10" text-anchor="middle" font-weight="normal" fill="#111">Delta scale alpha</text>
<text x="690.0" y="62.0" font-family="Arial, Helvetica, sans-serif" font-size="12" text-anchor="middle" font-weight="bold" fill="#111">ADI-DoRA</text>
<text x="690.0" y="78.0" font-family="Arial, Helvetica, sans-serif" font-size="9" text-anchor="middle" font-weight="normal" fill="#555">seed42 only; diagnostic</text>
<line x1="535.0" y1="282.0" x2="845.0" y2="282.0" stroke="#222" stroke-width="0.90" opacity="1.00"/>
<line x1="535.0" y1="92.0" x2="535.0" y2="282.0" stroke="#222" stroke-width="0.90" opacity="1.00"/>
<line x1="535.0" y1="273.4" x2="845.0" y2="273.4" stroke="#D8D8D8" stroke-width="0.55" opacity="0.90"/>
<text x="527.0" y="277.4" font-family="Arial, Helvetica, sans-serif" font-size="9" text-anchor="end" font-weight="normal" fill="#111">45</text>
<line x1="535.0" y1="230.2" x2="845.0" y2="230.2" stroke="#D8D8D8" stroke-width="0.55" opacity="0.90"/>
<text x="527.0" y="234.2" font-family="Arial, Helvetica, sans-serif" font-size="9" text-anchor="end" font-weight="normal" fill="#111">50</text>
<line x1="535.0" y1="187.0" x2="845.0" y2="187.0" stroke="#D8D8D8" stroke-width="0.55" opacity="0.90"/>
<text x="527.0" y="191.0" font-family="Arial, Helvetica, sans-serif" font-size="9" text-anchor="end" font-weight="normal" fill="#111">55</text>
<line x1="535.0" y1="143.8" x2="845.0" y2="143.8" stroke="#D8D8D8" stroke-width="0.55" opacity="0.90"/>
<text x="527.0" y="147.8" font-family="Arial, Helvetica, sans-serif" font-size="9" text-anchor="end" font-weight="normal" fill="#111">60</text>
<line x1="535.0" y1="100.6" x2="845.0" y2="100.6" stroke="#D8D8D8" stroke-width="0.55" opacity="0.90"/>
<text x="527.0" y="104.6" font-family="Arial, Helvetica, sans-serif" font-size="9" text-anchor="end" font-weight="normal" fill="#111">65</text>
<text x="535.0" y="302.0" font-family="Arial, Helvetica, sans-serif" font-size="9" text-anchor="middle" font-weight="normal" fill="#111">0.2</text>
<text x="612.5" y="302.0" font-family="Arial, Helvetica, sans-serif" font-size="9" text-anchor="middle" font-weight="normal" fill="#111">0.4</text>
<text x="690.0" y="302.0" font-family="Arial, Helvetica, sans-serif" font-size="9" text-anchor="middle" font-weight="normal" fill="#111">0.6</text>
<text x="767.5" y="302.0" font-family="Arial, Helvetica, sans-serif" font-size="9" text-anchor="middle" font-weight="normal" fill="#111">0.8</text>
<text x="845.0" y="302.0" font-family="Arial, Helvetica, sans-serif" font-size="9" text-anchor="middle" font-weight="normal" fill="#111">1.0</text>
<line x1="845.0" y1="92.0" x2="845.0" y2="282.0" stroke="#555" stroke-width="1.10" opacity="0.90" stroke-dasharray="5,4"/>
<text x="839.0" y="106.0" font-family="Arial, Helvetica, sans-serif" font-size="8" text-anchor="end" font-weight="normal" fill="#555" transform="rotate(-90.0 839.0 106.0)">alpha=1.0</text>
<line x1="535.0" y1="225.7" x2="612.5" y2="175.3" stroke="#D55E00" stroke-width="2.20" opacity="0.95"/>
<line x1="612.5" y1="175.3" x2="690.0" y2="169.0" stroke="#D55E00" stroke-width="2.20" opacity="0.95"/>
<line x1="690.0" y1="169.0" x2="767.5" y2="204.8" stroke="#D55E00" stroke-width="2.20" opacity="0.95"/>
<line x1="767.5" y1="204.8" x2="845.0" y2="274.9" stroke="#D55E00" stroke-width="2.20" opacity="0.95"/>
<circle cx="535.0" cy="225.7" r="3.6" fill="#D55E00" stroke="#222" stroke-width="0.70" opacity="1.00"/>
<circle cx="612.5" cy="175.3" r="3.6" fill="#D55E00" stroke="#222" stroke-width="0.70" opacity="1.00"/>
<circle cx="690.0" cy="169.0" r="3.6" fill="#D55E00" stroke="#222" stroke-width="0.70" opacity="1.00"/>
<circle cx="767.5" cy="204.8" r="3.6" fill="#D55E00" stroke="#222" stroke-width="0.70" opacity="1.00"/>
<circle cx="845.0" cy="274.9" r="3.6" fill="#D55E00" stroke="#222" stroke-width="0.70" opacity="1.00"/>
<line x1="767.5" y1="92.0" x2="767.5" y2="282.0" stroke="#D55E00" stroke-width="1.10" opacity="0.75" stroke-dasharray="3,3"/>
<text x="772.5" y="108.0" font-family="Arial, Helvetica, sans-serif" font-size="8" text-anchor="start" font-weight="normal" fill="#D55E00" transform="rotate(-90.0 772.5 108.0)">alpha*</text>
<text x="690.0" y="326.0" font-family="Arial, Helvetica, sans-serif" font-size="10" text-anchor="middle" font-weight="normal" fill="#111">Delta scale alpha</text>
<circle cx="90.0" cy="335.0" r="4.3" fill="#0072B2" stroke="#222" stroke-width="0.80" opacity="1.00"/>
<text x="103.0" y="339.0" font-family="Arial, Helvetica, sans-serif" font-size="9" text-anchor="start" font-weight="normal" fill="#111">LoRA mean</text>
<circle cx="188.0" cy="335.0" r="2.6" fill="#F4F4F4" stroke="#8A8A8A" stroke-width="0.65" opacity="1.00"/>
<text x="201.0" y="339.0" font-family="Arial, Helvetica, sans-serif" font-size="9" text-anchor="start" font-weight="normal" fill="#111">LoRA seed</text>
<circle cx="302.0" cy="335.0" r="4.0" fill="#D55E00" stroke="#222" stroke-width="0.80" opacity="1.00"/>
<text x="315.0" y="339.0" font-family="Arial, Helvetica, sans-serif" font-size="9" text-anchor="start" font-weight="normal" fill="#111">DoRA seed42</text>
<line x1="418.0" y1="334.0" x2="440.0" y2="334.0" stroke="#555" stroke-width="1.10" opacity="1.00" stroke-dasharray="3,3"/>
<text x="450.0" y="339.0" font-family="Arial, Helvetica, sans-serif" font-size="9" text-anchor="start" font-weight="normal" fill="#111">validation-selected alpha*</text>
</svg>