<svg xmlns="http://www.w3.org/2000/svg" width="1120" height="570" viewBox="0 0 1120 570">
<rect width="100%" height="100%" fill="white"/>
<text x="560.0" y="31.0" font-family="Arial, Helvetica, sans-serif" font-size="18" text-anchor="middle" font-weight="bold" fill="#1f2933">Fig. 4. Alpha-response curve on CIFAR-100</text>
<text x="560.0" y="58.0" font-family="Arial, Helvetica, sans-serif" font-size="12" text-anchor="middle" font-weight="normal" fill="#4b5563">Alpha is selected from Bicubic/Bilinear validation only; Nearest is a held-out diagnostic curve.</text>
<text x="305.5" y="88.0" font-family="Arial, Helvetica, sans-serif" font-size="14" text-anchor="middle" font-weight="bold" fill="#1f2933">(a) ADI-LoRA</text>
<line x1="78.0" y1="432.0" x2="533.0" y2="432.0" stroke="#e5e7eb" stroke-width="0.8" />
<text x="68.0" y="436.0" font-family="Arial, Helvetica, sans-serif" font-size="10" text-anchor="end" font-weight="normal" fill="#374151">40</text>
<line x1="78.0" y1="372.7" x2="533.0" y2="372.7" stroke="#e5e7eb" stroke-width="0.8" />
<text x="68.0" y="376.7" font-family="Arial, Helvetica, sans-serif" font-size="10" text-anchor="end" font-weight="normal" fill="#374151">50</text>
<line x1="78.0" y1="313.5" x2="533.0" y2="313.5" stroke="#e5e7eb" stroke-width="0.8" />
<text x="68.0" y="317.5" font-family="Arial, Helvetica, sans-serif" font-size="10" text-anchor="end" font-weight="normal" fill="#374151">60</text>
<line x1="78.0" y1="254.2" x2="533.0" y2="254.2" stroke="#e5e7eb" stroke-width="0.8" />
<text x="68.0" y="258.2" font-family="Arial, Helvetica, sans-serif" font-size="10" text-anchor="end" font-weight="normal" fill="#374151">70</text>
<line x1="78.0" y1="195.0" x2="533.0" y2="195.0" stroke="#e5e7eb" stroke-width="0.8" />
<text x="68.0" y="199.0" font-family="Arial, Helvetica, sans-serif" font-size="10" text-anchor="end" font-weight="normal" fill="#374151">80</text>
<line x1="78.0" y1="135.7" x2="533.0" y2="135.7" stroke="#e5e7eb" stroke-width="0.8" />
<text x="68.0" y="139.7" font-family="Arial, Helvetica, sans-serif" font-size="10" text-anchor="end" font-weight="normal" fill="#374151">90</text>
<line x1="78.0" y1="432.0" x2="533.0" y2="432.0" stroke="#111827" stroke-width="1.1" />
<line x1="78.0" y1="112.0" x2="78.0" y2="432.0" stroke="#111827" stroke-width="1.1" />
<line x1="78.0" y1="432.0" x2="78.0" y2="437.0" stroke="#111827" stroke-width="1" />
<text x="78.0" y="454.0" font-family="Arial, Helvetica, sans-serif" font-size="10" text-anchor="middle" font-weight="normal" fill="#374151">0.2</text>
<line x1="191.8" y1="432.0" x2="191.8" y2="437.0" stroke="#111827" stroke-width="1" />
<text x="191.8" y="454.0" font-family="Arial, Helvetica, sans-serif" font-size="10" text-anchor="middle" font-weight="normal" fill="#374151">0.4</text>
<line x1="305.5" y1="432.0" x2="305.5" y2="437.0" stroke="#111827" stroke-width="1" />
<text x="305.5" y="454.0" font-family="Arial, Helvetica, sans-serif" font-size="10" text-anchor="middle" font-weight="normal" fill="#374151">0.6</text>
<line x1="419.3" y1="432.0" x2="419.3" y2="437.0" stroke="#111827" stroke-width="1" />
<text x="419.3" y="454.0" font-family="Arial, Helvetica, sans-serif" font-size="10" text-anchor="middle" font-weight="normal" fill="#374151">0.8</text>
<line x1="533.0" y1="432.0" x2="533.0" y2="437.0" stroke="#111827" stroke-width="1" />
<text x="533.0" y="454.0" font-family="Arial, Helvetica, sans-serif" font-size="10" text-anchor="middle" font-weight="normal" fill="#374151">1.0</text>
<text x="305.5" y="481.0" font-family="Arial, Helvetica, sans-serif" font-size="11" text-anchor="middle" font-weight="normal" fill="#1f2933">Delta scale alpha</text>
<text x="30.0" y="272.0" font-family="Arial, Helvetica, sans-serif" font-size="11" text-anchor="middle" font-weight="normal" fill="#1f2933" transform="rotate(-90 30.0 272.0)">Accuracy (%)</text>
<line x1="533.0" y1="112.0" x2="533.0" y2="432.0" stroke="#6b7280" stroke-width="1" stroke-dasharray="5,4"/>
<text x="527.0" y="128.0" font-family="Arial, Helvetica, sans-serif" font-size="9" text-anchor="end" font-weight="normal" fill="#6b7280" transform="rotate(-90 527.0 128.0)">alpha=1.0</text>
<polyline points="78.0,156.0 191.8,131.1 305.5,124.0 419.3,121.8 533.0,122.5" fill="none" stroke="#2F6FBB" stroke-width="2.3" stroke-linejoin="round" stroke-linecap="round" />
<line x1="78.0" y1="152.7" x2="78.0" y2="159.3" stroke="#2F6FBB" stroke-width="1.0" opacity="0.55"/>
<line x1="74.0" y1="152.7" x2="82.0" y2="152.7" stroke="#2F6FBB" stroke-width="1.0" opacity="0.55"/>
<line x1="74.0" y1="159.3" x2="82.0" y2="159.3" stroke="#2F6FBB" stroke-width="1.0" opacity="0.55"/>
<circle cx="78.0" cy="156.0" r="3.5" fill="#2F6FBB" stroke="white" stroke-width="1"/>
<line x1="191.8" y1="129.1" x2="191.8" y2="133.1" stroke="#2F6FBB" stroke-width="1.0" opacity="0.55"/>
<line x1="187.8" y1="129.1" x2="195.8" y2="129.1" stroke="#2F6FBB" stroke-width="1.0" opacity="0.55"/>
<line x1="187.8" y1="133.1" x2="195.8" y2="133.1" stroke="#2F6FBB" stroke-width="1.0" opacity="0.55"/>
<circle cx="191.8" cy="131.1" r="3.5" fill="#2F6FBB" stroke="white" stroke-width="1"/>
<line x1="305.5" y1="121.8" x2="305.5" y2="126.3" stroke="#2F6FBB" stroke-width="1.0" opacity="0.55"/>
<line x1="301.5" y1="121.8" x2="309.5" y2="121.8" stroke="#2F6FBB" stroke-width="1.0" opacity="0.55"/>
<line x1="301.5" y1="126.3" x2="309.5" y2="126.3" stroke="#2F6FBB" stroke-width="1.0" opacity="0.55"/>
<circle cx="305.5" cy="124.0" r="3.5" fill="#2F6FBB" stroke="white" stroke-width="1"/>
<line x1="419.3" y1="119.7" x2="419.3" y2="123.8" stroke="#2F6FBB" stroke-width="1.0" opacity="0.55"/>
<line x1="415.3" y1="119.7" x2="423.3" y2="119.7" stroke="#2F6FBB" stroke-width="1.0" opacity="0.55"/>
<line x1="415.3" y1="123.8" x2="423.3" y2="123.8" stroke="#2F6FBB" stroke-width="1.0" opacity="0.55"/>
<circle cx="419.3" cy="121.8" r="3.5" fill="#2F6FBB" stroke="white" stroke-width="1"/>
<line x1="533.0" y1="120.9" x2="533.0" y2="124.2" stroke="#2F6FBB" stroke-width="1.0" opacity="0.55"/>
<line x1="529.0" y1="120.9" x2="537.0" y2="120.9" stroke="#2F6FBB" stroke-width="1.0" opacity="0.55"/>
<line x1="529.0" y1="124.2" x2="537.0" y2="124.2" stroke="#2F6FBB" stroke-width="1.0" opacity="0.55"/>
<circle cx="533.0" cy="122.5" r="3.5" fill="#2F6FBB" stroke="white" stroke-width="1"/>
<polyline points="78.0,158.0 191.8,133.1 305.5,126.3 419.3,124.4 533.0,126.5" fill="none" stroke="#E28A1A" stroke-width="2.3" stroke-linejoin="round" stroke-linecap="round" />
<line x1="78.0" y1="155.3" x2="78.0" y2="160.6" stroke="#E28A1A" stroke-width="1.0" opacity="0.55"/>
<line x1="74.0" y1="155.3" x2="82.0" y2="155.3" stroke="#E28A1A" stroke-width="1.0" opacity="0.55"/>
<line x1="74.0" y1="160.6" x2="82.0" y2="160.6" stroke="#E28A1A" stroke-width="1.0" opacity="0.55"/>
<circle cx="78.0" cy="158.0" r="3.5" fill="#E28A1A" stroke="white" stroke-width="1"/>
<line x1="191.8" y1="131.7" x2="191.8" y2="134.6" stroke="#E28A1A" stroke-width="1.0" opacity="0.55"/>
<line x1="187.8" y1="131.7" x2="195.8" y2="131.7" stroke="#E28A1A" stroke-width="1.0" opacity="0.55"/>
<line x1="187.8" y1="134.6" x2="195.8" y2="134.6" stroke="#E28A1A" stroke-width="1.0" opacity="0.55"/>
<circle cx="191.8" cy="133.1" r="3.5" fill="#E28A1A" stroke="white" stroke-width="1"/>
<line x1="305.5" y1="124.4" x2="305.5" y2="128.2" stroke="#E28A1A" stroke-width="1.0" opacity="0.55"/>
<line x1="301.5" y1="124.4" x2="309.5" y2="124.4" stroke="#E28A1A" stroke-width="1.0" opacity="0.55"/>
<line x1="301.5" y1="128.2" x2="309.5" y2="128.2" stroke="#E28A1A" stroke-width="1.0" opacity="0.55"/>
<circle cx="305.5" cy="126.3" r="3.5" fill="#E28A1A" stroke="white" stroke-width="1"/>
<line x1="419.3" y1="123.5" x2="419.3" y2="125.4" stroke="#E28A1A" stroke-width="1.0" opacity="0.55"/>
<line x1="415.3" y1="123.5" x2="423.3" y2="123.5" stroke="#E28A1A" stroke-width="1.0" opacity="0.55"/>
<line x1="415.3" y1="125.4" x2="423.3" y2="125.4" stroke="#E28A1A" stroke-width="1.0" opacity="0.55"/>
<circle cx="419.3" cy="124.4" r="3.5" fill="#E28A1A" stroke="white" stroke-width="1"/>
<line x1="533.0" y1="125.9" x2="533.0" y2="127.0" stroke="#E28A1A" stroke-width="1.0" opacity="0.55"/>
<line x1="529.0" y1="125.9" x2="537.0" y2="125.9" stroke="#E28A1A" stroke-width="1.0" opacity="0.55"/>
<line x1="529.0" y1="127.0" x2="537.0" y2="127.0" stroke="#E28A1A" stroke-width="1.0" opacity="0.55"/>
<circle cx="533.0" cy="126.5" r="3.5" fill="#E28A1A" stroke="white" stroke-width="1"/>
<polyline points="78.0,358.5 191.8,311.0 305.5,295.0 419.3,300.7 533.0,324.9" fill="none" stroke="#2F8F5B" stroke-width="2.3" stroke-linejoin="round" stroke-linecap="round" />
<line x1="78.0" y1="356.1" x2="78.0" y2="360.9" stroke="#2F8F5B" stroke-width="1.0" opacity="0.55"/>
<line x1="74.0" y1="356.1" x2="82.0" y2="356.1" stroke="#2F8F5B" stroke-width="1.0" opacity="0.55"/>
<line x1="74.0" y1="360.9" x2="82.0" y2="360.9" stroke="#2F8F5B" stroke-width="1.0" opacity="0.55"/>
<circle cx="78.0" cy="358.5" r="3.5" fill="#2F8F5B" stroke="white" stroke-width="1"/>
<line x1="191.8" y1="305.0" x2="191.8" y2="317.0" stroke="#2F8F5B" stroke-width="1.0" opacity="0.55"/>
<line x1="187.8" y1="305.0" x2="195.8" y2="305.0" stroke="#2F8F5B" stroke-width="1.0" opacity="0.55"/>
<line x1="187.8" y1="317.0" x2="195.8" y2="317.0" stroke="#2F8F5B" stroke-width="1.0" opacity="0.55"/>
<circle cx="191.8" cy="311.0" r="3.5" fill="#2F8F5B" stroke="white" stroke-width="1"/>
<line x1="305.5" y1="284.1" x2="305.5" y2="305.9" stroke="#2F8F5B" stroke-width="1.0" opacity="0.55"/>
<line x1="301.5" y1="284.1" x2="309.5" y2="284.1" stroke="#2F8F5B" stroke-width="1.0" opacity="0.55"/>
<line x1="301.5" y1="305.9" x2="309.5" y2="305.9" stroke="#2F8F5B" stroke-width="1.0" opacity="0.55"/>
<circle cx="305.5" cy="295.0" r="3.5" fill="#2F8F5B" stroke="white" stroke-width="1"/>
<line x1="419.3" y1="286.6" x2="419.3" y2="314.9" stroke="#2F8F5B" stroke-width="1.0" opacity="0.55"/>
<line x1="415.3" y1="286.6" x2="423.3" y2="286.6" stroke="#2F8F5B" stroke-width="1.0" opacity="0.55"/>
<line x1="415.3" y1="314.9" x2="423.3" y2="314.9" stroke="#2F8F5B" stroke-width="1.0" opacity="0.55"/>
<circle cx="419.3" cy="300.7" r="3.5" fill="#2F8F5B" stroke="white" stroke-width="1"/>
<line x1="533.0" y1="311.5" x2="533.0" y2="338.2" stroke="#2F8F5B" stroke-width="1.0" opacity="0.55"/>
<line x1="529.0" y1="311.5" x2="537.0" y2="311.5" stroke="#2F8F5B" stroke-width="1.0" opacity="0.55"/>
<line x1="529.0" y1="338.2" x2="537.0" y2="338.2" stroke="#2F8F5B" stroke-width="1.0" opacity="0.55"/>
<circle cx="533.0" cy="324.9" r="3.5" fill="#2F8F5B" stroke="white" stroke-width="1"/>
<polygon points="419.3,293.7 426.3,300.7 419.3,307.7 412.3,300.7" fill="#111827" stroke="white" stroke-width="1"/>
<text x="428.3" y="293.7" font-family="Arial, Helvetica, sans-serif" font-size="9" text-anchor="start" font-weight="normal" fill="#111827">alpha*</text>
<text x="837.5" y="88.0" font-family="Arial, Helvetica, sans-serif" font-size="14" text-anchor="middle" font-weight="bold" fill="#1f2933">(b) ADI-DoRA</text>
<line x1="610.0" y1="432.0" x2="1065.0" y2="432.0" stroke="#e5e7eb" stroke-width="0.8" />
<text x="600.0" y="436.0" font-family="Arial, Helvetica, sans-serif" font-size="10" text-anchor="end" font-weight="normal" fill="#374151">40</text>
<line x1="610.0" y1="372.7" x2="1065.0" y2="372.7" stroke="#e5e7eb" stroke-width="0.8" />
<text x="600.0" y="376.7" font-family="Arial, Helvetica, sans-serif" font-size="10" text-anchor="end" font-weight="normal" fill="#374151">50</text>
<line x1="610.0" y1="313.5" x2="1065.0" y2="313.5" stroke="#e5e7eb" stroke-width="0.8" />
<text x="600.0" y="317.5" font-family="Arial, Helvetica, sans-serif" font-size="10" text-anchor="end" font-weight="normal" fill="#374151">60</text>
<line x1="610.0" y1="254.2" x2="1065.0" y2="254.2" stroke="#e5e7eb" stroke-width="0.8" />
<text x="600.0" y="258.2" font-family="Arial, Helvetica, sans-serif" font-size="10" text-anchor="end" font-weight="normal" fill="#374151">70</text>
<line x1="610.0" y1="195.0" x2="1065.0" y2="195.0" stroke="#e5e7eb" stroke-width="0.8" />
<text x="600.0" y="199.0" font-family="Arial, Helvetica, sans-serif" font-size="10" text-anchor="end" font-weight="normal" fill="#374151">80</text>
<line x1="610.0" y1="135.7" x2="1065.0" y2="135.7" stroke="#e5e7eb" stroke-width="0.8" />
<text x="600.0" y="139.7" font-family="Arial, Helvetica, sans-serif" font-size="10" text-anchor="end" font-weight="normal" fill="#374151">90</text>
<line x1="610.0" y1="432.0" x2="1065.0" y2="432.0" stroke="#111827" stroke-width="1.1" />
<line x1="610.0" y1="112.0" x2="610.0" y2="432.0" stroke="#111827" stroke-width="1.1" />
<line x1="610.0" y1="432.0" x2="610.0" y2="437.0" stroke="#111827" stroke-width="1" />
<text x="610.0" y="454.0" font-family="Arial, Helvetica, sans-serif" font-size="10" text-anchor="middle" font-weight="normal" fill="#374151">0.2</text>
<line x1="723.8" y1="432.0" x2="723.8" y2="437.0" stroke="#111827" stroke-width="1" />
<text x="723.8" y="454.0" font-family="Arial, Helvetica, sans-serif" font-size="10" text-anchor="middle" font-weight="normal" fill="#374151">0.4</text>
<line x1="837.5" y1="432.0" x2="837.5" y2="437.0" stroke="#111827" stroke-width="1" />
<text x="837.5" y="454.0" font-family="Arial, Helvetica, sans-serif" font-size="10" text-anchor="middle" font-weight="normal" fill="#374151">0.6</text>
<line x1="951.2" y1="432.0" x2="951.2" y2="437.0" stroke="#111827" stroke-width="1" />
<text x="951.2" y="454.0" font-family="Arial, Helvetica, sans-serif" font-size="10" text-anchor="middle" font-weight="normal" fill="#374151">0.8</text>
<line x1="1065.0" y1="432.0" x2="1065.0" y2="437.0" stroke="#111827" stroke-width="1" />
<text x="1065.0" y="454.0" font-family="Arial, Helvetica, sans-serif" font-size="10" text-anchor="middle" font-weight="normal" fill="#374151">1.0</text>
<text x="837.5" y="481.0" font-family="Arial, Helvetica, sans-serif" font-size="11" text-anchor="middle" font-weight="normal" fill="#1f2933">Delta scale alpha</text>
<text x="562.0" y="272.0" font-family="Arial, Helvetica, sans-serif" font-size="11" text-anchor="middle" font-weight="normal" fill="#1f2933" transform="rotate(-90 562.0 272.0)">Accuracy (%)</text>
<line x1="1065.0" y1="112.0" x2="1065.0" y2="432.0" stroke="#6b7280" stroke-width="1" stroke-dasharray="5,4"/>
<text x="1059.0" y="128.0" font-family="Arial, Helvetica, sans-serif" font-size="9" text-anchor="end" font-weight="normal" fill="#6b7280" transform="rotate(-90 1059.0 128.0)">alpha=1.0</text>
<polyline points="610.0,160.0 723.8,131.8 837.5,121.5 951.2,120.0 1065.0,121.8" fill="none" stroke="#2F6FBB" stroke-width="2.3" stroke-linejoin="round" stroke-linecap="round" />
<line x1="610.0" y1="155.5" x2="610.0" y2="164.4" stroke="#2F6FBB" stroke-width="1.0" opacity="0.55"/>
<line x1="606.0" y1="155.5" x2="614.0" y2="155.5" stroke="#2F6FBB" stroke-width="1.0" opacity="0.55"/>
<line x1="606.0" y1="164.4" x2="614.0" y2="164.4" stroke="#2F6FBB" stroke-width="1.0" opacity="0.55"/>
<circle cx="610.0" cy="160.0" r="3.5" fill="#2F6FBB" stroke="white" stroke-width="1"/>
<line x1="723.8" y1="130.4" x2="723.8" y2="133.2" stroke="#2F6FBB" stroke-width="1.0" opacity="0.55"/>
<line x1="719.8" y1="130.4" x2="727.8" y2="130.4" stroke="#2F6FBB" stroke-width="1.0" opacity="0.55"/>
<line x1="719.8" y1="133.2" x2="727.8" y2="133.2" stroke="#2F6FBB" stroke-width="1.0" opacity="0.55"/>
<circle cx="723.8" cy="131.8" r="3.5" fill="#2F6FBB" stroke="white" stroke-width="1"/>
<line x1="837.5" y1="120.4" x2="837.5" y2="122.6" stroke="#2F6FBB" stroke-width="1.0" opacity="0.55"/>
<line x1="833.5" y1="120.4" x2="841.5" y2="120.4" stroke="#2F6FBB" stroke-width="1.0" opacity="0.55"/>
<line x1="833.5" y1="122.6" x2="841.5" y2="122.6" stroke="#2F6FBB" stroke-width="1.0" opacity="0.55"/>
<circle cx="837.5" cy="121.5" r="3.5" fill="#2F6FBB" stroke="white" stroke-width="1"/>
<line x1="951.2" y1="119.2" x2="951.2" y2="120.8" stroke="#2F6FBB" stroke-width="1.0" opacity="0.55"/>
<line x1="947.2" y1="119.2" x2="955.2" y2="119.2" stroke="#2F6FBB" stroke-width="1.0" opacity="0.55"/>
<line x1="947.2" y1="120.8" x2="955.2" y2="120.8" stroke="#2F6FBB" stroke-width="1.0" opacity="0.55"/>
<circle cx="951.2" cy="120.0" r="3.5" fill="#2F6FBB" stroke="white" stroke-width="1"/>
<line x1="1065.0" y1="121.0" x2="1065.0" y2="122.5" stroke="#2F6FBB" stroke-width="1.0" opacity="0.55"/>
<line x1="1061.0" y1="121.0" x2="1069.0" y2="121.0" stroke="#2F6FBB" stroke-width="1.0" opacity="0.55"/>
<line x1="1061.0" y1="122.5" x2="1069.0" y2="122.5" stroke="#2F6FBB" stroke-width="1.0" opacity="0.55"/>
<circle cx="1065.0" cy="121.8" r="3.5" fill="#2F6FBB" stroke="white" stroke-width="1"/>
<polyline points="610.0,163.6 723.8,134.5 837.5,124.9 951.2,123.3 1065.0,125.6" fill="none" stroke="#E28A1A" stroke-width="2.3" stroke-linejoin="round" stroke-linecap="round" />
<line x1="610.0" y1="156.9" x2="610.0" y2="170.2" stroke="#E28A1A" stroke-width="1.0" opacity="0.55"/>
<line x1="606.0" y1="156.9" x2="614.0" y2="156.9" stroke="#E28A1A" stroke-width="1.0" opacity="0.55"/>
<line x1="606.0" y1="170.2" x2="614.0" y2="170.2" stroke="#E28A1A" stroke-width="1.0" opacity="0.55"/>
<circle cx="610.0" cy="163.6" r="3.5" fill="#E28A1A" stroke="white" stroke-width="1"/>
<line x1="723.8" y1="131.5" x2="723.8" y2="137.5" stroke="#E28A1A" stroke-width="1.0" opacity="0.55"/>
<line x1="719.8" y1="131.5" x2="727.8" y2="131.5" stroke="#E28A1A" stroke-width="1.0" opacity="0.55"/>
<line x1="719.8" y1="137.5" x2="727.8" y2="137.5" stroke="#E28A1A" stroke-width="1.0" opacity="0.55"/>
<circle cx="723.8" cy="134.5" r="3.5" fill="#E28A1A" stroke="white" stroke-width="1"/>
<line x1="837.5" y1="123.5" x2="837.5" y2="126.3" stroke="#E28A1A" stroke-width="1.0" opacity="0.55"/>
<line x1="833.5" y1="123.5" x2="841.5" y2="123.5" stroke="#E28A1A" stroke-width="1.0" opacity="0.55"/>
<line x1="833.5" y1="126.3" x2="841.5" y2="126.3" stroke="#E28A1A" stroke-width="1.0" opacity="0.55"/>
<circle cx="837.5" cy="124.9" r="3.5" fill="#E28A1A" stroke="white" stroke-width="1"/>
<line x1="951.2" y1="122.8" x2="951.2" y2="123.7" stroke="#E28A1A" stroke-width="1.0" opacity="0.55"/>
<line x1="947.2" y1="122.8" x2="955.2" y2="122.8" stroke="#E28A1A" stroke-width="1.0" opacity="0.55"/>
<line x1="947.2" y1="123.7" x2="955.2" y2="123.7" stroke="#E28A1A" stroke-width="1.0" opacity="0.55"/>
<circle cx="951.2" cy="123.3" r="3.5" fill="#E28A1A" stroke="white" stroke-width="1"/>
<line x1="1065.0" y1="125.1" x2="1065.0" y2="126.0" stroke="#E28A1A" stroke-width="1.0" opacity="0.55"/>
<line x1="1061.0" y1="125.1" x2="1069.0" y2="125.1" stroke="#E28A1A" stroke-width="1.0" opacity="0.55"/>
<line x1="1061.0" y1="126.0" x2="1069.0" y2="126.0" stroke="#E28A1A" stroke-width="1.0" opacity="0.55"/>
<circle cx="1065.0" cy="125.6" r="3.5" fill="#E28A1A" stroke="white" stroke-width="1"/>
<polyline points="610.0,375.3 723.8,337.6 837.5,331.7 951.2,351.8 1065.0,396.9" fill="none" stroke="#2F8F5B" stroke-width="2.3" stroke-linejoin="round" stroke-linecap="round" />
<line x1="610.0" y1="370.3" x2="610.0" y2="380.3" stroke="#2F8F5B" stroke-width="1.0" opacity="0.55"/>
<line x1="606.0" y1="370.3" x2="614.0" y2="370.3" stroke="#2F8F5B" stroke-width="1.0" opacity="0.55"/>
<line x1="606.0" y1="380.3" x2="614.0" y2="380.3" stroke="#2F8F5B" stroke-width="1.0" opacity="0.55"/>
<circle cx="610.0" cy="375.3" r="3.5" fill="#2F8F5B" stroke="white" stroke-width="1"/>
<line x1="723.8" y1="335.1" x2="723.8" y2="340.1" stroke="#2F8F5B" stroke-width="1.0" opacity="0.55"/>
<line x1="719.8" y1="335.1" x2="727.8" y2="335.1" stroke="#2F8F5B" stroke-width="1.0" opacity="0.55"/>
<line x1="719.8" y1="340.1" x2="727.8" y2="340.1" stroke="#2F8F5B" stroke-width="1.0" opacity="0.55"/>
<circle cx="723.8" cy="337.6" r="3.5" fill="#2F8F5B" stroke="white" stroke-width="1"/>
<line x1="837.5" y1="329.1" x2="837.5" y2="334.3" stroke="#2F8F5B" stroke-width="1.0" opacity="0.55"/>
<line x1="833.5" y1="329.1" x2="841.5" y2="329.1" stroke="#2F8F5B" stroke-width="1.0" opacity="0.55"/>
<line x1="833.5" y1="334.3" x2="841.5" y2="334.3" stroke="#2F8F5B" stroke-width="1.0" opacity="0.55"/>
<circle cx="837.5" cy="331.7" r="3.5" fill="#2F8F5B" stroke="white" stroke-width="1"/>
<line x1="951.2" y1="346.9" x2="951.2" y2="356.7" stroke="#2F8F5B" stroke-width="1.0" opacity="0.55"/>
<line x1="947.2" y1="346.9" x2="955.2" y2="346.9" stroke="#2F8F5B" stroke-width="1.0" opacity="0.55"/>
<line x1="947.2" y1="356.7" x2="955.2" y2="356.7" stroke="#2F8F5B" stroke-width="1.0" opacity="0.55"/>
<circle cx="951.2" cy="351.8" r="3.5" fill="#2F8F5B" stroke="white" stroke-width="1"/>
<line x1="1065.0" y1="385.8" x2="1065.0" y2="408.0" stroke="#2F8F5B" stroke-width="1.0" opacity="0.55"/>
<line x1="1061.0" y1="385.8" x2="1069.0" y2="385.8" stroke="#2F8F5B" stroke-width="1.0" opacity="0.55"/>
<line x1="1061.0" y1="408.0" x2="1069.0" y2="408.0" stroke="#2F8F5B" stroke-width="1.0" opacity="0.55"/>
<circle cx="1065.0" cy="396.9" r="3.5" fill="#2F8F5B" stroke="white" stroke-width="1"/>
<polygon points="837.5,324.7 844.5,331.7 837.5,338.7 830.5,331.7" fill="#111827" stroke="white" stroke-width="1"/>
<text x="846.5" y="324.7" font-family="Arial, Helvetica, sans-serif" font-size="9" text-anchor="start" font-weight="normal" fill="#111827">alpha*</text>
<polygon points="951.2,344.8 958.2,351.8 951.2,358.8 944.2,351.8" fill="#111827" stroke="white" stroke-width="1"/>
<text x="960.2" y="344.8" font-family="Arial, Helvetica, sans-serif" font-size="9" text-anchor="start" font-weight="normal" fill="#111827">alpha*</text>
<line x1="270.0" y1="505.0" x2="300.0" y2="505.0" stroke="#2F6FBB" stroke-width="2.5" />
<circle cx="285.0" cy="505.0" r="3.5" fill="#2F6FBB" stroke="white" stroke-width="1"/>
<text x="308.0" y="509.0" font-family="Arial, Helvetica, sans-serif" font-size="11" text-anchor="start" font-weight="normal" fill="#1f2933">Val Bicubic</text>
<line x1="460.0" y1="505.0" x2="490.0" y2="505.0" stroke="#E28A1A" stroke-width="2.5" />
<circle cx="475.0" cy="505.0" r="3.5" fill="#E28A1A" stroke="white" stroke-width="1"/>
<text x="498.0" y="509.0" font-family="Arial, Helvetica, sans-serif" font-size="11" text-anchor="start" font-weight="normal" fill="#1f2933">Val Bilinear</text>
<line x1="650.0" y1="505.0" x2="680.0" y2="505.0" stroke="#2F8F5B" stroke-width="2.5" />
<circle cx="665.0" cy="505.0" r="3.5" fill="#2F8F5B" stroke="white" stroke-width="1"/>
<text x="688.0" y="509.0" font-family="Arial, Helvetica, sans-serif" font-size="11" text-anchor="start" font-weight="normal" fill="#1f2933">Held-out Test Nearest</text>
<polygon points="865.0,499.0 871.0,505.0 865.0,511.0 859.0,505.0" fill="#111827" stroke="white" stroke-width="1"/>
<text x="879.0" y="509.0" font-family="Arial, Helvetica, sans-serif" font-size="11" text-anchor="start" font-weight="normal" fill="#1f2933">validation-selected alpha*</text>
<text x="560.0" y="545.0" font-family="Arial, Helvetica, sans-serif" font-size="10" text-anchor="middle" font-weight="normal" fill="#4b5563">Same final checkpoint; no retraining; no extra inference module. Error bars show seed std (n=3).</text>
</svg>