<svg xmlns="http://www.w3.org/2000/svg" width="720" height="420" viewBox="0 0 720 420">
<rect width="100%" height="100%" fill="white"/>
<text x="360.0" y="28.0" font-family="Arial, Helvetica, sans-serif" font-size="12" text-anchor="middle" font-weight="bold">CIFAR-100 clean interpolation</text>
<text x="78.0" y="49.0" font-family="Arial, Helvetica, sans-serif" font-size="10" text-anchor="start" font-weight="normal">Gain / reduction (pp)</text>
<line x1="78" y1="328" x2="692" y2="328" stroke="#222" stroke-width="1.0"/>
<line x1="78" y1="62" x2="78" y2="328" stroke="#222" stroke-width="1.0"/>
<line x1="78" y1="328.0" x2="692" y2="328.0" stroke="#dddddd" stroke-width="0.7"/>
<text x="69.0" y="332.0" font-family="Arial, Helvetica, sans-serif" font-size="9" text-anchor="end" font-weight="normal">0</text>
<line x1="78" y1="283.7" x2="692" y2="283.7" stroke="#dddddd" stroke-width="0.7"/>
<text x="69.0" y="287.7" font-family="Arial, Helvetica, sans-serif" font-size="9" text-anchor="end" font-weight="normal">2</text>
<line x1="78" y1="239.3" x2="692" y2="239.3" stroke="#dddddd" stroke-width="0.7"/>
<text x="69.0" y="243.3" font-family="Arial, Helvetica, sans-serif" font-size="9" text-anchor="end" font-weight="normal">4</text>
<line x1="78" y1="195.0" x2="692" y2="195.0" stroke="#dddddd" stroke-width="0.7"/>
<text x="69.0" y="199.0" font-family="Arial, Helvetica, sans-serif" font-size="9" text-anchor="end" font-weight="normal">6</text>
<line x1="78" y1="150.7" x2="692" y2="150.7" stroke="#dddddd" stroke-width="0.7"/>
<text x="69.0" y="154.7" font-family="Arial, Helvetica, sans-serif" font-size="9" text-anchor="end" font-weight="normal">8</text>
<line x1="78" y1="106.3" x2="692" y2="106.3" stroke="#dddddd" stroke-width="0.7"/>
<text x="69.0" y="110.3" font-family="Arial, Helvetica, sans-serif" font-size="9" text-anchor="end" font-weight="normal">10</text>
<line x1="78" y1="62.0" x2="692" y2="62.0" stroke="#dddddd" stroke-width="0.7"/>
<text x="69.0" y="66.0" font-family="Arial, Helvetica, sans-serif" font-size="9" text-anchor="end" font-weight="normal">12</text>
<text x="231.5" y="356.0" font-family="Arial, Helvetica, sans-serif" font-size="10" text-anchor="middle" font-weight="normal"><tspan x="231.5" dy="0">ADI-LoRA</tspan></text>
<rect x="193.5" y="237.8" width="34.0" height="90.2" fill="#0072B2" stroke="#222" stroke-width="0.6"/>
<line x1="210.5" y1="229.1" x2="210.5" y2="246.4" stroke="#222" stroke-width="0.7"/>
<line x1="205.5" y1="229.1" x2="215.5" y2="229.1" stroke="#222" stroke-width="0.7"/>
<line x1="205.5" y1="246.4" x2="215.5" y2="246.4" stroke="#222" stroke-width="0.7"/>
<text x="210.5" y="230.8" font-family="Arial, Helvetica, sans-serif" font-size="9" text-anchor="middle" font-weight="normal">+4.07</text>
<rect x="235.5" y="244.0" width="34.0" height="84.0" fill="#E69F00" stroke="#222" stroke-width="0.6"/>
<text x="252.5" y="237.0" font-family="Arial, Helvetica, sans-serif" font-size="9" text-anchor="middle" font-weight="normal">+3.79</text>
<text x="538.5" y="356.0" font-family="Arial, Helvetica, sans-serif" font-size="10" text-anchor="middle" font-weight="normal"><tspan x="538.5" dy="0">ADI-DoRA</tspan></text>
<rect x="500.5" y="135.2" width="34.0" height="192.8" fill="#0072B2" stroke="#222" stroke-width="0.6"/>
<line x1="517.5" y1="76.6" x2="517.5" y2="193.7" stroke="#222" stroke-width="0.7"/>
<line x1="512.5" y1="76.6" x2="522.5" y2="76.6" stroke="#222" stroke-width="0.7"/>
<line x1="512.5" y1="193.7" x2="522.5" y2="193.7" stroke="#222" stroke-width="0.7"/>
<text x="517.5" y="128.2" font-family="Arial, Helvetica, sans-serif" font-size="9" text-anchor="middle" font-weight="normal">+8.70</text>
<rect x="542.5" y="139.6" width="34.0" height="188.4" fill="#E69F00" stroke="#222" stroke-width="0.6"/>
<text x="559.5" y="132.6" font-family="Arial, Helvetica, sans-serif" font-size="9" text-anchor="middle" font-weight="normal">+8.50</text>
<rect x="82" y="385" width="13" height="13" fill="#0072B2" stroke="#222" stroke-width="0.5"/>
<text x="101.0" y="396.0" font-family="Arial, Helvetica, sans-serif" font-size="9" text-anchor="start" font-weight="normal">Nearest gain</text>
<rect x="252" y="385" width="13" height="13" fill="#E69F00" stroke="#222" stroke-width="0.5"/>
<text x="271.0" y="396.0" font-family="Arial, Helvetica, sans-serif" font-size="9" text-anchor="start" font-weight="normal">Drop reduction</text>
</svg>